<mxfile host="app.diagrams.net" modified="2023-09-13T09:14:49.749Z" agent="Mozilla/5.0 (Windows NT 10.0; Win64; x64) AppleWebKit/537.36 (KHTML, like Gecko) Chrome/116.0.0.0 Safari/537.36 Edg/116.0.1938.76" version="21.7.5" etag="rEwPtnto3XtDT0D4ChX3" type="github">
  <diagram name="페이지-1" id="QmbNK3f0S6vT-9R9-lbl">
    <mxGraphModel>
      <root>
        <mxCell id="0" />
        <mxCell id="1" parent="0" />
      </root>
    </mxGraphModel>
  </diagram>
</mxfile>
